<svg id="Layer_1" data-name="Layer 1" xmlns="http://www.w3.org/2000/svg" viewBox="0 0 150 90"><path d="M64.25,52.81H54.94L37.84,34.13H29.65V52.81H22.47v-47H36.39a57.88,57.88,0,0,1,7.77.44,16.84,16.84,0,0,1,6,2.05,12.75,12.75,0,0,1,4.47,4.07,11,11,0,0,1,1.65,6.18,12.77,12.77,0,0,1-3,8.65,17.87,17.87,0,0,1-8.19,5.14ZM48.74,19.06a7.78,7.78,0,0,0-.83-3.64,6.5,6.5,0,0,0-2.57-2.61,10.8,10.8,0,0,0-3.55-1.24,29.55,29.55,0,0,0-5-.37h-7.1V28.93H36a30.17,30.17,0,0,0,5.55-.47,9,9,0,0,0,4.2-2A8.08,8.08,0,0,0,48,23.35,11.47,11.47,0,0,0,48.74,19.06Z"/><path d="M89.5,42.92A22.1,22.1,0,0,1,87.08,53.3a18.51,18.51,0,0,1-6.48,7.23,20.92,20.92,0,0,1-6.72,2.68,46.2,46.2,0,0,1-8.71.68h-10v-42h9.92a41.15,41.15,0,0,1,9.65.89,20.74,20.74,0,0,1,6,2.44,18.27,18.27,0,0,1,6.52,7.13A22.69,22.69,0,0,1,89.5,42.92Zm-6-.09a18.78,18.78,0,0,0-1.67-8.28,12.31,12.31,0,0,0-5-5.35,17.1,17.1,0,0,0-4.95-1.95,30.78,30.78,0,0,0-6.55-.59H60.93V59.09h4.42a33.68,33.68,0,0,0,6.76-.6,14.51,14.51,0,0,0,5.3-2.2A12.31,12.31,0,0,0,81.94,51,19.42,19.42,0,0,0,83.47,42.83Z"/><path d="M130.12,80h-6.4V39.55l-12.55,27.5h-3.88L94.85,39.55V80h-6V33.06h8.73l12,26.12,11.61-26.12h8.89Z"/></svg>